<svg xmlns="http://www.w3.org/2000/svg" width="682.67" height="682.67" version="1.0" viewBox="0 0 512 512"><path d="M146 172.6c-13.7 2.6-21.9 8.4-27.5 19.5-7 13.8-7 13.6-7 61.9s0 48 7 62.1c6.2 12.2 15.6 18 32.8 20.1 16.7 2.1 33.4-1.7 41.5-9.5 8.1-7.7 12.2-20.7 12.2-38.4V276h-31.8l-.4 12.7c-.8 19.6-3.7 24.9-13.9 24.7-6.5-.1-9.9-2.6-12.1-9-1.5-4.3-1.7-10.1-1.8-49.9 0-29.4.4-46.4 1.1-49 2.3-8.6 10.1-12.4 18.6-9 6.2 2.5 7.5 6.1 8.1 22.2l.5 13.3H205v-12.8c0-18.1-3.5-28.8-12.5-37.7-6.3-6.4-14.2-8.7-31-9.1-7.1-.1-14.1 0-15.5.2zM232.1 251.3c-8.4 41.9-15.5 77.4-15.8 79l-.5 2.8 15.8-.3 15.8-.3 3.1-17 3-17 12.4-.3c6.9-.1 12.8.1 13.2.5.5.5 2.1 8.4 3.6 17.6l2.7 16.7h15.3c11.7 0 15.3-.3 15.3-1.3 0-.7-7-36.1-15.5-78.7S285 175.4 285 175.3c0-.2-8.4-.3-18.7-.3h-18.8l-15.4 76.3zm39.4-3.9c2.5 15.8 4.5 29.4 4.5 30.2 0 1.1-2 1.4-9.5 1.4-8.9 0-9.5-.1-9.5-2.1 0-1.8 7-48.4 8.6-56.9.4-1.9.8-3.1 1-2.5.2.5 2.4 14 4.9 29.9zM313 187v12h26v134h33V199h25v-24h-84v12z"/></svg>